<svg xmlns="http://www.w3.org/2000/svg" width="24" height="24"
     viewBox="0 0 24 24" fill="none">
  <!-- Cart body -->
  <path d="M7.5 6.5h13l-1.25 7.25a2 2 0 0 1-2 1.75H9.2a2 2 0 0 1-1.98-1.65L5.6 5.5H3.5"
        stroke="#6B7280" stroke-width="1.8" stroke-linecap="round" stroke-linejoin="round"/>

  <!-- Handle / top line -->
  <path d="M7.8 9.5h11.7"
        stroke="#6B7280" stroke-width="1.8" stroke-linecap="round" stroke-linejoin="round"/>

  <!-- Wheels -->
  <path d="M10 19.2a1.2 1.2 0 1 1-2.4 0a1.2 1.2 0 0 1 2.4 0Z" fill="#6B7280"/>
  <path d="M18 19.2a1.2 1.2 0 1 1-2.4 0a1.2 1.2 0 0 1 2.4 0Z" fill="#6B7280"/>
</svg>
