<svg width="784" height="55" viewBox="0 0 784 55" fill="none" xmlns="http://www.w3.org/2000/svg">
<g clip-path="url(#clip0_84_123)">
<path d="M211.7 27.3198H504.65" stroke="#40C2CC" stroke-miterlimit="10"/>
<path d="M88.4698 46.19C87.4398 48.42 85.8998 50.15 83.8598 51.36C81.8198 52.57 79.1698 53.18 75.9098 53.18H67.0398V27.08H70.0298C71.3798 27.08 72.6398 27.4 73.7898 28.04C74.9398 28.68 75.8998 29.59 76.6798 30.77C77.4498 31.95 77.9398 33.35 78.1598 34.97H79.5498V18.04H78.1598C77.9498 19.67 77.4498 21.04 76.6798 22.17C75.9098 23.3 74.9498 24.16 73.7898 24.75C72.6398 25.35 71.3898 25.64 70.0298 25.64H67.0398V1.42H76.6198C79.3998 1.42 81.7098 2 83.5698 3.17C85.4198 4.34 86.8398 5.94 87.8298 7.98C88.8198 10.02 89.4198 12.34 89.6298 14.93H91.0198V0H51.2598V1.42H57.6698V53.18H51.2598V54.6H91.7298V38.22H90.3398C90.1298 41.3 89.4998 43.96 88.4698 46.19Z" fill="#40C2CC"/>
<path d="M132.79 46.19C131.76 48.42 130.22 50.15 128.18 51.36C126.14 52.57 123.49 53.18 120.23 53.18H111.36V27.08H114.35C115.7 27.08 116.96 27.4 118.11 28.04C119.26 28.68 120.22 29.59 121 30.77C121.77 31.95 122.26 33.35 122.48 34.97H123.87V18.04H122.48C122.27 19.67 121.77 21.04 121 22.17C120.23 23.3 119.27 24.16 118.11 24.75C116.96 25.35 115.71 25.64 114.35 25.64H111.36V1.42H120.94C123.72 1.42 126.03 2 127.89 3.17C129.74 4.34 131.16 5.94 132.15 7.98C133.14 10.02 133.74 12.34 133.95 14.93H135.34V0H95.5801V1.42H101.99V53.18H95.5801V54.6H136.05V38.22H134.66C134.45 41.3 133.82 43.96 132.79 46.19Z" fill="#40C2CC"/>
<path d="M139.72 0V1.42H146.13V53.18H139.72V54.6H162.59V53.18H155.5V28.14H157.67C159.59 28.14 161.2 28.46 162.5 29.09C163.79 29.72 164.8 30.62 165.51 31.78C166.22 32.94 166.69 34.34 166.9 35.97H168.29V19.33H166.9C166.69 20.96 166.22 22.32 165.51 23.43C164.8 24.53 163.79 25.37 162.5 25.92C161.21 26.48 159.6 26.76 157.67 26.76H155.5V1.42H164.76C167.47 1.42 169.69 2 171.44 3.17C173.19 4.34 174.52 5.94 175.45 7.98C176.38 10.02 176.95 12.34 177.16 14.93H178.55V0H139.72Z" fill="#40C2CC"/>
<path d="M41.49 52.1398C41.1 51.7098 40.84 51.2598 40.84 51.2598C40.39 50.2898 40.12 49.0098 40.05 47.4098C39.99 45.7998 39.94 44.0698 39.91 42.1698C39.89 40.2798 39.71 38.3898 39.39 36.4998C39.07 34.6098 38.41 32.8598 37.43 31.2598C36.45 29.6598 34.98 28.3798 33.03 27.3998C32.98 27.3798 32.94 27.3498 32.89 27.3398C31.89 26.8598 30.7 26.4998 29.34 26.2698C31.31 26.0598 33.11 25.7098 34.71 25.2198C37.56 24.3498 39.74 22.9598 41.25 21.0598C42.76 19.1498 43.51 16.6498 43.51 13.5598C43.51 10.4698 42.71 7.90977 41.11 5.90977C39.51 3.90977 37.27 2.42977 34.39 1.45977C31.52 0.499766 28.18 0.00976562 24.38 0.00976562H0V1.39977H7.41V53.2398H0V54.6298H24.19V53.2398H16.74V27.3298H24.13C24.86 27.3298 25.59 27.4998 26.2 27.8898C26.2 27.8898 26.2 27.8898 26.21 27.8898C27.44 28.6798 28.33 29.7298 28.86 31.0598C29.39 32.3798 29.73 33.8798 29.88 35.5198C30.02 37.1698 30.11 38.8698 30.13 40.6298C30.15 42.3798 30.24 44.0898 30.41 45.7398C30.58 47.3898 30.97 48.8698 31.57 50.1998C32.18 51.5198 33.12 52.5798 34.4 53.3698C35.93 54.3098 37.8 54.4798 39.22 54.5298C39.41 54.5298 39.58 54.5498 39.74 54.5498C41.69 54.5998 43.54 54.6298 45.26 54.6298C46.06 54.6298 46.83 54.6498 47.57 54.6298V53.2098C46.35 53.2098 45.13 53.1798 43.92 53.1698C43.01 53.1698 42.1 52.8298 41.48 52.1398H41.49ZM23.3 1.38977C25.58 1.38977 27.5 1.82977 29.07 2.70977C30.64 3.58977 31.82 4.92977 32.62 6.72977C33.42 8.52977 33.81 10.7998 33.81 13.5398C33.81 16.2798 33.41 18.5498 32.62 20.3498C31.82 22.1498 30.64 23.4898 29.07 24.3698C27.5 25.2498 25.58 25.6898 23.3 25.6898H16.74V1.38977H23.3Z" fill="#40C2CC"/>
<path d="M543.04 33.2602V21.4102H544.55V31.9202H549.67V33.2602H543.04Z" fill="#40C2CC"/>
<path d="M558.33 33.4302C557.45 33.4302 556.7 33.3002 556.07 33.0502C555.45 32.8002 554.97 32.3902 554.64 31.8302C554.31 31.2702 554.14 30.5202 554.14 29.6002V21.4102H555.65V29.6502C555.65 30.5202 555.88 31.1502 556.35 31.5302C556.82 31.9102 557.48 32.1102 558.33 32.1102C559.22 32.1102 559.91 31.9202 560.38 31.5302C560.85 31.1502 561.09 30.5202 561.09 29.6502V21.4102H562.6V29.6002C562.6 30.5202 562.43 31.2602 562.1 31.8202C561.77 32.3902 561.28 32.8002 560.65 33.0502C560.01 33.3002 559.24 33.4302 558.32 33.4302H558.33Z" fill="#40C2CC"/>
<path d="M567.29 33.2602L570.88 27.4702L567.29 21.4102H568.97L571.82 26.3402L574.72 21.4102H576.34L572.75 27.3902L576.32 33.2602H574.64L571.81 28.4902L568.91 33.2602H567.29Z" fill="#40C2CC"/>
<path d="M585.211 33.4302C584.331 33.4302 583.581 33.3002 582.951 33.0502C582.331 32.8002 581.851 32.3902 581.521 31.8302C581.191 31.2702 581.021 30.5202 581.021 29.6002V21.4102H582.531V29.6502C582.531 30.5202 582.76 31.1502 583.23 31.5302C583.7 31.9102 584.361 32.1102 585.211 32.1102C586.101 32.1102 586.79 31.9202 587.26 31.5302C587.73 31.1502 587.97 30.5202 587.97 29.6502V21.4102H589.48V29.6002C589.48 30.5202 589.31 31.2602 588.98 31.8202C588.65 32.3902 588.161 32.8002 587.531 33.0502C586.891 33.3002 586.121 33.4302 585.201 33.4302H585.211Z" fill="#40C2CC"/>
<path d="M595.271 33.2602V21.4102H599.701C600.561 21.4102 601.27 21.5402 601.85 21.7902C602.42 22.0402 602.851 22.4402 603.151 22.9702C603.451 23.5002 603.591 24.2002 603.591 25.0502C603.591 25.9002 603.421 26.6502 603.081 27.2402C602.741 27.8302 602.2 28.2502 601.48 28.5002L603.68 33.2602H602.031L600 28.8302H596.79V33.2602H595.281H595.271ZM596.781 27.5202H599.73C600.29 27.5202 600.741 27.4102 601.081 27.2002C601.421 26.9902 601.66 26.7002 601.8 26.3202C601.94 25.9502 602.021 25.5302 602.021 25.0602C602.021 24.2702 601.831 23.6802 601.451 23.2902C601.071 22.9002 600.491 22.7102 599.701 22.7102H596.781V27.5202Z" fill="#40C2CC"/>
<path d="M610.98 33.2602V28.3502L607.24 21.4102H608.92L611.72 26.8202L614.55 21.4102H616.23L612.49 28.3502V33.2602H610.98Z" fill="#40C2CC"/>
<path d="M627.74 33.2602V21.4102H632.02C632.9 21.4102 633.63 21.5502 634.21 21.8302C634.79 22.1102 635.25 22.5002 635.58 23.0102C635.92 23.5102 636.16 24.1202 636.3 24.8202C636.44 25.5202 636.52 26.3102 636.52 27.1602C636.52 28.0102 636.45 28.8202 636.31 29.5602C636.17 30.3002 635.93 30.9502 635.6 31.5002C635.26 32.0502 634.8 32.4902 634.23 32.8002C633.65 33.1102 632.92 33.2602 632.04 33.2602H627.75H627.74ZM629.26 31.9402H632.02C632.63 31.9402 633.12 31.8102 633.5 31.5502C633.88 31.2902 634.17 30.9402 634.38 30.4902C634.59 30.0402 634.74 29.5402 634.83 28.9702C634.92 28.4002 634.96 27.8002 634.96 27.1602C634.96 26.5202 634.92 25.9502 634.83 25.4102C634.74 24.8702 634.6 24.4002 634.38 24.0002C634.16 23.6002 633.87 23.2902 633.49 23.0602C633.11 22.8302 632.62 22.7302 632.02 22.7302H629.26V31.9302V31.9402Z" fill="#40C2CC"/>
<path d="M641.91 33.2602V21.4102H649.24V22.7302H643.42V26.5902H648.21V27.9002H643.42V31.9402H649.24V33.2602H641.91Z" fill="#40C2CC"/>
<path d="M656.55 33.2602L653.49 21.4102H655.07L657.66 31.8902H658.57L661.18 21.4102H662.74L659.72 33.2602H656.54H656.55Z" fill="#40C2CC"/>
<path d="M667.62 33.2602V21.4102H674.95V22.7302H669.13V26.5902H673.92V27.9002H669.13V31.9402H674.95V33.2602H667.62Z" fill="#40C2CC"/>
<path d="M680.21 33.2602V21.4102H681.72V31.9202H686.84V33.2602H680.21Z" fill="#40C2CC"/>
<path d="M695.62 33.43C694.38 33.43 693.42 33.2 692.74 32.75C692.05 32.3 691.57 31.62 691.3 30.72C691.03 29.82 690.89 28.71 690.89 27.38C690.89 26.05 691.03 24.95 691.31 24.03C691.59 23.12 692.07 22.42 692.76 21.93C693.45 21.45 694.4 21.21 695.63 21.21C696.86 21.21 697.83 21.45 698.51 21.92C699.2 22.39 699.68 23.09 699.96 24.02C700.24 24.94 700.38 26.06 700.38 27.38C700.38 28.7 700.24 29.87 699.97 30.76C699.7 31.65 699.21 32.32 698.52 32.76C697.83 33.2 696.86 33.42 695.63 33.42L695.62 33.43ZM695.62 32.11C696.5 32.11 697.17 31.94 697.63 31.6C698.09 31.26 698.4 30.74 698.57 30.05C698.74 29.35 698.82 28.46 698.82 27.39C698.82 26.32 698.73 25.48 698.56 24.76C698.39 24.04 698.07 23.49 697.62 23.11C697.16 22.73 696.5 22.54 695.63 22.54C694.76 22.54 694.1 22.73 693.65 23.11C693.2 23.49 692.89 24.03 692.71 24.75C692.53 25.47 692.45 26.34 692.45 27.39C692.45 28.44 692.53 29.3 692.7 30C692.87 30.7 693.17 31.22 693.63 31.58C694.08 31.94 694.75 32.11 695.63 32.11H695.62Z" fill="#40C2CC"/>
<path d="M705.78 33.2602V21.4102H710.14C711.02 21.4102 711.75 21.5502 712.32 21.8302C712.89 22.1102 713.32 22.5302 713.6 23.1002C713.88 23.6702 714.02 24.4002 714.02 25.2902C714.02 26.1802 713.88 26.9102 713.6 27.5102C713.32 28.1102 712.89 28.5702 712.32 28.8802C711.75 29.1902 711.02 29.3502 710.14 29.3502H707.29V33.2502H705.78V33.2602ZM707.29 28.0602H710.12C710.96 28.0602 711.56 27.8202 711.92 27.3402C712.29 26.8602 712.47 26.1802 712.47 25.3002C712.47 24.4202 712.29 23.7502 711.92 23.3402C711.55 22.9302 710.95 22.7202 710.12 22.7202H707.29V28.0602Z" fill="#40C2CC"/>
<path d="M719.061 33.2602V21.4102H721.741L724.881 31.0802L728.061 21.4102H730.741V33.2602H729.231V23.0902H728.971L725.711 32.8502H724.101L720.841 23.0902H720.581V33.2602H719.071H719.061Z" fill="#40C2CC"/>
<path d="M736.61 33.2602V21.4102H743.94V22.7302H738.12V26.5902H742.91V27.9002H738.12V31.9402H743.94V33.2602H736.61Z" fill="#40C2CC"/>
<path d="M749.2 33.2602V21.4102H751.83L756.21 31.7302H756.54V21.4102H758.05V33.2602H755.47L751.04 22.9202H750.71V33.2602H749.2Z" fill="#40C2CC"/>
<path d="M766.32 33.2602V22.7502H762.76V21.4102H771.35V22.7502H767.83V33.2602H766.32Z" fill="#40C2CC"/>
<path d="M779.391 33.4102C779.021 33.4102 778.611 33.3902 778.151 33.3502C777.691 33.3102 777.221 33.2602 776.771 33.2002C776.311 33.1402 775.91 33.0802 775.57 33.0402L775.711 31.8002C776.051 31.8302 776.451 31.8702 776.891 31.9202C777.331 31.9702 777.771 32.0102 778.201 32.0402C778.631 32.0702 779.01 32.0902 779.32 32.0902C779.86 32.0902 780.3 32.0102 780.66 31.8502C781.01 31.6902 781.281 31.4502 781.461 31.1202C781.641 30.7902 781.73 30.3702 781.73 29.8602C781.73 29.4502 781.65 29.1202 781.49 28.8602C781.33 28.6102 781.06 28.4102 780.69 28.2702C780.32 28.1302 779.82 27.9902 779.19 27.8702C778.56 27.7502 778.01 27.6002 777.55 27.4402C777.09 27.2802 776.701 27.0702 776.391 26.8202C776.081 26.5702 775.851 26.2502 775.701 25.8802C775.551 25.5002 775.48 25.0302 775.48 24.4702C775.48 23.6802 775.641 23.0502 775.961 22.5702C776.281 22.1002 776.73 21.7502 777.32 21.5302C777.9 21.3102 778.58 21.2002 779.36 21.2002C779.7 21.2002 780.1 21.2202 780.54 21.2602C780.99 21.3002 781.43 21.3502 781.86 21.4002C782.3 21.4502 782.67 21.5102 782.98 21.5602L782.88 22.8102C782.54 22.7602 782.151 22.7202 781.711 22.6802C781.271 22.6402 780.851 22.6002 780.451 22.5702C780.051 22.5402 779.711 22.5202 779.461 22.5202C778.931 22.5202 778.49 22.5902 778.12 22.7202C777.75 22.8502 777.48 23.0502 777.29 23.3202C777.1 23.5902 777.01 23.9302 777.01 24.3402C777.01 24.8302 777.101 25.2002 777.281 25.4602C777.461 25.7102 777.76 25.9102 778.17 26.0502C778.58 26.1902 779.12 26.3402 779.79 26.4902C780.4 26.6402 780.92 26.7902 781.35 26.9502C781.78 27.1102 782.15 27.3102 782.43 27.5402C782.72 27.7702 782.92 28.0702 783.06 28.4202C783.19 28.7802 783.26 29.2102 783.26 29.7302C783.26 30.6102 783.1 31.3202 782.79 31.8602C782.47 32.4002 782.031 32.7902 781.461 33.0402C780.891 33.2902 780.21 33.4102 779.42 33.4102H779.391Z" fill="#40C2CC"/>
</g>
<defs>
<clipPath id="clip0_84_123">
<rect width="783.24" height="54.64" fill="white"/>
</clipPath>
</defs>
</svg>
