<svg width="255" height="239" viewBox="0 0 255 239" fill="none" xmlns="http://www.w3.org/2000/svg">
<g clip-path="url(#clip0_84_118)">
<path d="M252.26 45.47C250.92 46.78 248.78 47.57 246.93 47.7L134.47 47.72L134.09 48.13C129.16 71.97 104.71 85.22 81.7097 77.06C69.0897 72.58 58.8997 61.02 56.8397 47.68L7.39973 47.65C-2.39027 46.63 -2.34027 33.16 7.12973 31.79L56.8297 31.75C59.6497 16.12 72.9497 3.09997 88.6197 0.539968C108.54 -2.71003 127.34 8.91997 133.38 28.05C133.62 28.8 134 31.57 134.47 31.73L246.92 31.77C253.85 32.01 257.19 40.65 252.27 45.47H252.26ZM92.8597 15.93C62.4297 18.87 65.7197 66.02 97.5497 63.6C128.62 61.23 125.37 12.8 92.8597 15.93Z" fill="black"/>
<path d="M252.26 125.05C251.01 126.27 248.9 127.11 247.18 127.26L214.06 127.3L213.68 127.71C208.75 151.55 184.3 164.8 161.3 156.64C148.68 152.16 138.49 140.6 136.43 127.26H7.62008C-2.51992 126.35 -2.40992 112.54 7.35008 111.34H136.4C139.22 95.6901 152.52 82.6701 168.19 80.1101C189.5 76.6301 209.37 90.2401 213.86 111.22L246.65 111.33C253.7 111.38 257.26 120.13 252.25 125.04L252.26 125.05ZM172.44 95.5101C142.01 98.4501 145.3 145.6 177.13 143.18C208.2 140.81 204.95 92.3801 172.44 95.5101Z" fill="black"/>
<path d="M252.26 204.63C250.92 205.94 248.78 206.73 246.93 206.86L118.55 206.88L118.17 207.29C113.24 231.13 88.7896 244.38 65.7896 236.22C53.1696 231.74 42.9796 220.18 40.9196 206.84H7.8696C-2.2504 206.05 -2.6604 192.82 6.8896 190.99L40.8996 190.91C43.7196 175.28 57.0196 162.26 72.6896 159.7C92.6096 156.45 111.41 168.08 117.45 187.21C117.69 187.96 118.07 190.73 118.54 190.89L246.9 190.93C253.83 191.17 257.17 199.81 252.25 204.63H252.26ZM76.9396 175.09C46.5096 178.03 49.7996 225.18 81.6296 222.76C112.7 220.39 109.45 171.96 76.9396 175.09Z" fill="black"/>
</g>
<defs>
<clipPath id="clip0_84_118">
<rect width="254.6" height="238.64" fill="white"/>
</clipPath>
</defs>
</svg>
