<svg width="182" height="182" viewBox="0 0 182 182" fill="none" xmlns="http://www.w3.org/2000/svg">
<rect width="182" height="182" fill="white"/>
<g clip-path="url(#clip0_81_78)">
<path d="M83.6 40.8699L81.71 83.4799H46.38L44.46 40.2599C47.78 40.6699 51.07 40.3999 54.14 38.9899C57.81 37.3099 61.05 34.0299 65.08 34.2299C68.96 34.4199 71.84 37.7799 75.29 39.5899C77.83 40.9299 80.78 41.3099 83.6 40.8699Z" fill="black" stroke="black" stroke-width="6" stroke-linecap="round" stroke-linejoin="round"/>
<path d="M84.7099 16L83.5999 40.87C80.7799 41.31 77.8299 40.93 75.2899 39.59C71.8399 37.78 68.9599 34.42 65.0799 34.23C61.0499 34.03 57.8099 37.31 54.1399 38.99C51.0699 40.4 47.7799 40.67 44.4599 40.26L43.3799 16H84.7099Z" stroke="black" stroke-width="6" stroke-linecap="round" stroke-linejoin="round"/>
<path d="M134.16 46.74L133.55 57.11L132.63 72.82L132 83.48H106.58L104.42 46.74H134.16Z" fill="black" stroke="black" stroke-width="6" stroke-linecap="round" stroke-linejoin="round"/>
<path d="M143.87 64.2099C143.87 68.4999 140.39 71.97 136.1 71.97C135 71.97 133.94 71.74 132.99 71.32L133.73 56.83C134.48 56.58 135.28 56.45 136.1 56.45C140.39 56.45 143.87 59.9299 143.87 64.2099Z" stroke="black" stroke-width="6" stroke-linecap="round" stroke-linejoin="round"/>
<path d="M115.61 17.6901C114.17 20.3201 114.95 22.7501 115.73 25.6101C116.73 28.7301 117.48 33.6501 114.46 36.1601L113.26 35.3801C114.03 29.6601 108.57 23.9801 112.24 18.3101C112.82 17.4501 113.63 16.6901 114.6 16.3201L115.61 17.6901Z" fill="black"/>
<path d="M124.54 17.5C123.49 20.78 125.06 23.01 126.29 26.11C127.93 29.38 128.53 35.63 124.17 37.38L123.31 36.27C124.69 33.17 123.27 30.87 122.08 27.85C121.01 25.44 119.96 21.7 121.36 18.92C121.84 17.92 122.58 16.99 123.57 16.51L124.55 17.5H124.54Z" fill="black"/>
<path d="M124.42 169.56L119.82 158.09C118.23 154.13 114.97 151.07 110.92 149.75L68.7295 135.92C66.7095 135.26 64.8995 134.08 63.4695 132.5L42.6095 109.39C40.1895 106.71 39.9695 102.71 42.0895 99.78L42.1595 99.68C43.3695 98.01 45.7595 97.83 47.1795 99.29L60.0595 112.45C66.4995 119.03 74.5195 123.84 83.3495 126.43L101.61 131.79C104.11 132.52 106.73 131.12 107.51 128.64C108.4 125.81 107.49 122.72 105.21 120.83L91.9795 109.83C89.9995 108.18 89.5395 105.33 90.9095 103.14C92.7695 100.16 96.5695 99.04 99.7495 100.54L133.99 116.64C135.8 117.49 137.22 119.01 137.95 120.88L148.68 148.47" fill="black"/>
<path d="M172.66 95.3H10" stroke="black" stroke-width="6" stroke-linecap="round" stroke-linejoin="round"/>
</g>
<defs>
<clipPath id="clip0_81_78">
<rect width="168.66" height="156.56" fill="white" transform="translate(7 13)"/>
</clipPath>
</defs>
</svg>
