<svg width="430" height="340" viewBox="0 0 430 340" fill="none" xmlns="http://www.w3.org/2000/svg">
<g clip-path="url(#clip0_4280_19294)">
<path d="M79.8404 339.893V326.273H81.5708V338.36H87.445V339.893H79.8253H79.8404Z" fill="#40C2CC"/>
<path d="M97.4023 340.091C96.3853 340.091 95.5201 339.939 94.8067 339.651C94.0933 339.362 93.5469 338.891 93.1674 338.254C92.788 337.616 92.5906 336.75 92.5906 335.688V326.273H94.321V335.748C94.321 336.75 94.5942 337.464 95.1255 337.904C95.6719 338.345 96.4157 338.572 97.4023 338.572C98.4345 338.572 99.2086 338.36 99.755 337.904C100.301 337.464 100.575 336.75 100.575 335.748V326.273H102.305V335.688C102.305 336.735 102.108 337.585 101.728 338.238C101.349 338.891 100.787 339.362 100.059 339.651C99.33 339.939 98.4345 340.091 97.3871 340.091H97.4023Z" fill="#40C2CC"/>
<path d="M107.709 339.893L111.837 333.243L107.709 326.273H109.636L112.915 331.937L116.254 326.273H118.106L113.978 333.137L118.076 339.893H116.148L112.885 334.412L109.545 339.893H107.694H107.709Z" fill="#40C2CC"/>
<path d="M128.291 340.091C127.274 340.091 126.409 339.939 125.696 339.651C124.982 339.362 124.436 338.891 124.056 338.254C123.677 337.616 123.479 336.75 123.479 335.688V326.273H125.21V335.748C125.21 336.75 125.483 337.464 126.014 337.904C126.561 338.345 127.304 338.572 128.291 338.572C129.323 338.572 130.097 338.36 130.644 337.904C131.19 337.464 131.463 336.75 131.463 335.748V326.273H133.194V335.688C133.194 336.735 132.997 337.585 132.617 338.238C132.238 338.891 131.676 339.362 130.947 339.651C130.219 339.939 129.323 340.091 128.276 340.091H128.291Z" fill="#40C2CC"/>
<path d="M139.842 339.893V326.273H144.927C145.914 326.273 146.733 326.41 147.386 326.714C148.039 327.002 148.54 327.458 148.874 328.08C149.208 328.703 149.374 329.492 149.374 330.464C149.374 331.436 149.177 332.301 148.783 332.985C148.388 333.668 147.781 334.139 146.946 334.442L149.466 339.909H147.568L145.246 334.822H141.557V339.909H139.827L139.842 339.893ZM141.588 333.304H144.988C145.625 333.304 146.157 333.182 146.536 332.939C146.931 332.696 147.204 332.362 147.371 331.937C147.538 331.512 147.614 331.026 147.614 330.479C147.614 329.568 147.401 328.9 146.961 328.445C146.521 328.004 145.853 327.777 144.942 327.777H141.588V333.304Z" fill="#40C2CC"/>
<path d="M157.905 339.893V334.245L153.609 326.273H155.537L158.755 332.484L162.018 326.273H163.946L159.651 334.245V339.893H157.92H157.905Z" fill="#40C2CC"/>
<path d="M177.167 339.893V326.273H182.085C183.102 326.273 183.937 326.44 184.604 326.759C185.272 327.078 185.788 327.534 186.183 328.111C186.578 328.688 186.851 329.386 187.018 330.191C187.185 330.996 187.261 331.892 187.261 332.878C187.261 333.865 187.185 334.776 187.018 335.627C186.866 336.477 186.593 337.221 186.198 337.859C185.804 338.497 185.288 338.998 184.62 339.347C183.952 339.696 183.117 339.878 182.1 339.878H177.167V339.893ZM178.897 338.375H182.07C182.768 338.375 183.329 338.223 183.77 337.935C184.21 337.646 184.544 337.236 184.787 336.72C185.029 336.204 185.196 335.627 185.303 334.974C185.409 334.321 185.454 333.622 185.454 332.894C185.454 332.165 185.409 331.497 185.303 330.874C185.212 330.252 185.029 329.72 184.787 329.249C184.544 328.779 184.195 328.43 183.754 328.171C183.314 327.913 182.753 327.792 182.07 327.792H178.897V338.375Z" fill="#40C2CC"/>
<path d="M193.439 339.893V326.273H201.863V327.792H195.169V332.226H200.679V333.729H195.169V338.36H201.863V339.878H193.439V339.893Z" fill="#40C2CC"/>
<path d="M210.257 339.893L206.75 326.273H208.572L211.547 338.314H212.594L215.6 326.273H217.391L213.915 339.893H210.257Z" fill="#40C2CC"/>
<path d="M222.976 339.893V326.273H231.401V327.792H224.707V332.226H230.217V333.729H224.707V338.36H231.401V339.878H222.976V339.893Z" fill="#40C2CC"/>
<path d="M237.442 339.893V326.273H239.172V338.36H245.046V339.893H237.427H237.442Z" fill="#40C2CC"/>
<path d="M255.14 340.091C253.714 340.091 252.621 339.833 251.831 339.317C251.042 338.8 250.496 338.026 250.177 336.994C249.858 335.961 249.706 334.686 249.706 333.152C249.706 331.618 249.873 330.358 250.192 329.295C250.511 328.248 251.072 327.443 251.862 326.881C252.651 326.334 253.744 326.046 255.156 326.046C256.567 326.046 257.675 326.319 258.464 326.866C259.254 327.412 259.815 328.217 260.134 329.28C260.453 330.343 260.62 331.618 260.62 333.137C260.62 334.655 260.468 336.007 260.149 337.024C259.831 338.041 259.284 338.816 258.48 339.317C257.69 339.818 256.582 340.076 255.156 340.076L255.14 340.091ZM255.14 338.573C256.157 338.573 256.916 338.375 257.447 337.996C257.979 337.616 258.328 337.009 258.525 336.204C258.723 335.399 258.814 334.382 258.814 333.137C258.814 331.892 258.707 330.95 258.51 330.115C258.313 329.28 257.948 328.658 257.432 328.217C256.901 327.777 256.142 327.564 255.14 327.564C254.139 327.564 253.38 327.777 252.863 328.217C252.347 328.658 251.983 329.28 251.786 330.1C251.588 330.92 251.482 331.937 251.482 333.137C251.482 334.336 251.573 335.339 251.771 336.143C251.968 336.948 252.317 337.555 252.833 337.965C253.349 338.375 254.123 338.573 255.125 338.573H255.14Z" fill="#40C2CC"/>
<path d="M266.828 339.893V326.273H271.837C272.854 326.273 273.689 326.44 274.341 326.759C274.994 327.078 275.495 327.564 275.814 328.217C276.133 328.87 276.3 329.705 276.3 330.738C276.3 331.77 276.133 332.605 275.814 333.288C275.495 333.987 274.994 334.503 274.341 334.868C273.689 335.232 272.854 335.414 271.837 335.414H268.558V339.893H266.828ZM268.558 333.911H271.807C272.763 333.911 273.461 333.638 273.886 333.076C274.311 332.529 274.524 331.74 274.524 330.722C274.524 329.705 274.311 328.946 273.886 328.475C273.461 328.004 272.778 327.761 271.807 327.761H268.558V333.896V333.911Z" fill="#40C2CC"/>
<path d="M282.083 339.893V326.273H285.164L288.776 337.388L292.435 326.273H295.516V339.893H293.785V328.202H293.482L289.733 339.408H287.881L284.132 328.202H283.843V339.893H282.113H282.083Z" fill="#40C2CC"/>
<path d="M302.24 339.893V326.273H310.664V327.792H303.97V332.226H309.48V333.729H303.97V338.36H310.664V339.878H302.24V339.893Z" fill="#40C2CC"/>
<path d="M316.705 339.893V326.273H319.726L324.765 338.132H325.145V326.273H326.875V339.893H323.915L318.831 328.004H318.451V339.893H316.721H316.705Z" fill="#40C2CC"/>
<path d="M336.377 339.893V327.807H332.294V326.273H342.16V327.807H338.108V339.893H336.377Z" fill="#40C2CC"/>
<path d="M351.404 340.076C350.979 340.076 350.509 340.045 349.977 340C349.446 339.954 348.915 339.893 348.384 339.817C347.852 339.742 347.397 339.681 347.002 339.635L347.154 338.208C347.549 338.253 348.004 338.299 348.505 338.345C349.006 338.39 349.522 338.436 350.008 338.481C350.509 338.527 350.934 338.542 351.283 338.542C351.905 338.542 352.421 338.451 352.816 338.269C353.226 338.086 353.529 337.813 353.727 337.434C353.924 337.054 354.03 336.568 354.03 335.976C354.03 335.505 353.939 335.126 353.757 334.837C353.575 334.549 353.271 334.321 352.846 334.154C352.421 333.987 351.844 333.835 351.116 333.683C350.387 333.531 349.765 333.379 349.234 333.182C348.702 333 348.262 332.757 347.898 332.468C347.534 332.18 347.276 331.815 347.109 331.39C346.942 330.95 346.851 330.419 346.851 329.766C346.851 328.855 347.033 328.126 347.397 327.579C347.761 327.033 348.277 326.638 348.96 326.38C349.628 326.121 350.418 326 351.313 326C351.708 326 352.163 326.03 352.679 326.076C353.195 326.121 353.696 326.167 354.197 326.228C354.698 326.288 355.123 326.349 355.487 326.41L355.366 327.852C354.971 327.807 354.531 327.746 354.03 327.701C353.529 327.655 353.044 327.609 352.573 327.579C352.102 327.549 351.723 327.518 351.435 327.518C350.827 327.518 350.311 327.594 349.902 327.746C349.492 327.898 349.158 328.126 348.945 328.445C348.733 328.748 348.626 329.143 348.626 329.614C348.626 330.176 348.733 330.601 348.945 330.889C349.158 331.178 349.492 331.405 349.977 331.573C350.448 331.74 351.07 331.907 351.829 332.074C352.527 332.241 353.119 332.423 353.62 332.605C354.121 332.787 354.531 333.015 354.865 333.288C355.199 333.562 355.427 333.896 355.578 334.306C355.73 334.716 355.806 335.217 355.806 335.809C355.806 336.826 355.624 337.646 355.26 338.253C354.895 338.876 354.394 339.316 353.727 339.605C353.074 339.893 352.285 340.03 351.374 340.03L351.404 340.076Z" fill="#40C2CC"/>
<path d="M209.027 287.858C206.583 293.142 202.956 297.211 198.129 300.081C193.302 302.951 187.048 304.378 179.353 304.378H158.391V242.701H165.464C168.667 242.701 171.627 243.46 174.344 244.978C177.061 246.497 179.337 248.653 181.159 251.432C182.98 254.21 184.149 257.52 184.65 261.362H187.929V221.352H184.65C184.149 225.194 182.98 228.443 181.159 231.115C179.337 233.788 177.061 235.822 174.344 237.219C171.627 238.632 168.667 239.33 165.464 239.33H158.391V182.026H181.037C187.61 182.026 193.074 183.407 197.446 186.156C201.817 188.904 205.172 192.7 207.509 197.513C209.832 202.327 211.258 207.808 211.759 213.942H215.038V178.67H121.096V182.026H136.245V304.363H121.096V307.719H216.723V269H213.444C212.943 276.288 211.471 282.559 209.027 287.843V287.858Z" fill="#40C2CC"/>
<path d="M313.73 287.858C311.287 293.142 307.659 297.211 302.832 300.081C298.005 302.951 291.752 304.378 284.056 304.378H263.094V242.701H270.167C273.37 242.701 276.33 243.46 279.047 244.978C281.764 246.497 284.041 248.653 285.862 251.432C287.684 254.21 288.852 257.52 289.353 261.362H292.632V221.352H289.353C288.852 225.194 287.684 228.443 285.862 231.115C284.041 233.788 281.764 235.822 279.047 237.219C276.33 238.632 273.37 239.33 270.167 239.33H263.094V182.026H285.741C292.313 182.026 297.778 183.407 302.149 186.156C306.52 188.904 309.875 192.7 312.213 197.513C314.535 202.327 315.962 207.808 316.463 213.942H319.741V178.67H225.8V182.026H240.948V304.363H225.8V307.719H321.426V269H318.147C317.647 276.288 316.174 282.559 313.73 287.843V287.858Z" fill="#40C2CC"/>
<path d="M330.108 182.041H345.257V304.378H330.108V307.734H384.145V304.378H367.387V245.191H372.518C377.072 245.191 380.866 245.935 383.917 247.423C386.968 248.911 389.351 251.037 391.036 253.785C392.721 256.533 393.814 259.844 394.315 263.685H397.593V224.374H394.315C393.814 228.215 392.721 231.449 391.036 234.046C389.351 236.658 386.983 238.616 383.917 239.937C380.851 241.258 377.056 241.911 372.518 241.911H367.387V182.026H389.275C395.666 182.026 400.933 183.407 405.061 186.156C409.19 188.904 412.347 192.7 414.533 197.513C416.719 202.327 418.069 207.808 418.57 213.942H421.849V178.67H330.093V182.026L330.108 182.041Z" fill="#40C2CC"/>
<path d="M98.0246 301.904C98.0246 301.904 98.0246 301.888 98.0095 301.888C97.0987 300.871 96.4612 299.808 96.4612 299.808C95.3987 297.515 94.7612 294.494 94.5942 290.713C94.4424 286.917 94.321 282.817 94.2755 278.323C94.2148 273.859 93.8049 269.379 93.0612 264.915C92.3022 260.451 90.754 256.321 88.4316 252.54C86.1093 248.76 82.6333 245.738 78.019 243.43C77.8976 243.369 77.8065 243.309 77.7002 243.278C75.3323 242.139 72.5394 241.304 69.3215 240.758C73.9814 240.257 78.2315 239.437 82.011 238.283C88.7504 236.233 93.896 232.953 97.463 228.443C101.03 223.934 102.806 218.027 102.806 210.709C102.806 203.39 100.909 197.362 97.1291 192.64C93.3344 187.917 88.0522 184.41 81.2672 182.132C74.4823 179.855 66.5894 178.716 57.6187 178.716H0V182.011H17.5011V304.53H0V307.825H57.1633V304.53H39.5711V243.293H57.0267C58.7419 243.293 60.4723 243.703 61.9295 244.614C61.9295 244.614 61.9446 244.614 61.9598 244.63C64.8742 246.497 66.9688 248.972 68.2287 252.13C69.4885 255.258 70.293 258.781 70.6269 262.668C70.9457 266.555 71.1582 270.579 71.2189 274.739C71.2796 278.885 71.4921 282.924 71.8868 286.811C72.2814 290.713 73.2073 294.205 74.6341 297.348C76.0609 300.476 78.2922 302.966 81.328 304.849C84.9557 307.066 89.3575 307.476 92.7121 307.598C93.1522 307.613 93.5469 307.643 93.9567 307.643C98.5711 307.765 102.943 307.841 106.995 307.841C108.877 307.841 110.699 307.886 112.444 307.841V304.485C109.561 304.47 106.692 304.409 103.808 304.394C101.652 304.394 99.5122 303.589 98.055 301.949L98.0246 301.904ZM55.0535 181.98C60.4419 181.98 64.9804 183.028 68.684 185.108C72.3877 187.188 75.1806 190.362 77.0627 194.613C78.9449 198.865 79.886 204.225 79.886 210.709C79.886 217.192 78.9449 222.552 77.0627 226.804C75.1806 231.055 72.3877 234.229 68.684 236.309C64.9804 238.389 60.4419 239.437 55.0535 239.437H39.5711V182.011H55.0535V181.98Z" fill="#40C2CC"/>
<path d="M346.486 165.885C353.562 165.885 359.297 160.148 359.297 153.07C359.297 145.992 353.562 140.255 346.486 140.255C339.411 140.255 333.675 145.992 333.675 153.07C333.675 160.148 339.411 165.885 346.486 165.885Z" fill="#40C2CC"/>
<path d="M314.96 140.255C307.887 140.255 302.149 145.994 302.149 153.07C302.149 160.146 307.887 165.885 314.96 165.885C322.033 165.885 327.771 160.146 327.771 153.07C327.771 145.994 322.033 140.255 314.96 140.255Z" fill="#40C2CC"/>
<path d="M221.049 25.6306C228.124 25.6306 233.86 19.893 233.86 12.8153C233.86 5.7376 228.124 0 221.049 0C213.973 0 208.238 5.7376 208.238 12.8153C208.238 19.893 213.973 25.6306 221.049 25.6306Z" fill="#40C2CC"/>
<path d="M359.297 125.177H342.024V50.8205H359.297V47.0093H316.797V125.177H278.85C280.747 119.27 281.688 112.771 281.688 105.695C281.688 93.8519 278.865 83.542 273.264 74.8871C267.678 66.2171 260.256 59.5058 251.012 54.7835C241.753 50.1372 231.81 47.7837 221.034 47.7837C210.257 47.7837 200.239 50.1372 191.055 54.7835C181.872 59.5058 174.45 66.2171 168.849 74.8871C163.248 83.542 160.425 93.8519 160.425 105.695C160.425 112.786 161.366 119.285 163.293 125.237H65.0411V125.161H45.9462V50.8205H70.9001C78.1859 50.8205 84.1816 52.3845 88.887 55.5275C93.5772 58.6706 97.1746 62.9829 99.6639 68.4643C102.168 73.9609 103.701 80.2015 104.278 87.2014H108.012V46.9941H3.46075V50.8205H20.719V125.161H3.46075V128.988H359.297V125.177ZM248.78 125.237H193.393C192.497 119.164 192.057 112.65 192.057 105.695C192.057 98.149 192.634 91.0885 193.879 84.5442C195.123 78.0606 196.945 72.2907 199.358 67.3407C201.772 62.3907 204.777 58.5036 208.42 55.7857C212.078 53.0829 216.252 51.6708 221.034 51.6708C225.815 51.6708 229.928 53.0829 233.571 55.7857C237.229 58.5036 240.28 62.3907 242.694 67.3407C245.168 72.2907 247.004 78.0606 248.234 84.5442C249.479 91.0885 250.055 98.149 250.055 105.695C250.055 112.65 249.661 119.164 248.78 125.237Z" fill="#40C2CC"/>
<path d="M380.821 47.0703V50.8208H396.409V89.5551C396.409 94.7025 396.075 99.5006 395.392 103.934C394.724 108.383 393.465 112.255 391.613 115.55C390.732 117.129 389.898 118.374 388.714 119.513C387.757 120.439 386.103 121.806 382.794 123.051C377.026 125.222 370.954 125.268 367.964 125.162C367.995 125.89 368.01 126.65 368.025 127.409C368.025 127.94 368.025 128.472 368.025 128.988C368.966 129.003 370.302 129.018 371.926 128.988C381.944 128.745 396.941 128.381 406.215 120.272C416.719 111.086 416.202 95.1277 415.96 91.1191V50.8208H429.985V47.0703H380.806H380.821Z" fill="#40C2CC"/>
</g>
<defs>
<clipPath id="clip0_4280_19294">
<rect width="430" height="340" fill="white"/>
</clipPath>
</defs>
</svg>
